{
  "title": "Unbroken.2014.1080p.WEB-DL.DD5.1.H264-RARBG",
  "uid": 11745683,
  "size": 4946351557,
  "categoryP": "video",
  "categoryS": "hd___movies",
  "magnet": "?xt=urn:btih:3cc75a4ec762f51999d5904ce372bb8e2b30d97f&amp;dn=+Unbroken.2014.1080p.WEB-DL.DD5.1.H264-RARBG&amp;tr=udp%3A%2F%2Ftracker.openbittorrent.com%3A80&amp;tr=udp%3A%2F%2Fopen.demonii.com%3A1337&amp;tr=udp%3A%2F%2Ftracker.coppersurfer.tk%3A6969&amp;tr=udp%3A%2F%2Fexodus.desync.com%3A6969",
  "seeders": 485,
  "leechers": 5,
  "uploader": "makintos13",
  "files": 5,
  "time": 1426005814,
  "description": "screens:\n &lt;a href=&quot;\nhttp://imgsleek.com/img-54ff1161343ab.html&quot; rel=&quot;nofollow&quot; target=&quot;_NEW&quot;&gt;\nhttp://imgsleek.com/img-54ff1161343ab.html&lt;/a&gt;\n &lt;a href=&quot;\nhttp://imgsleek.com/img-54ff11613c9e4.html&quot; rel=&quot;nofollow&quot; target=&quot;_NEW&quot;&gt;\nhttp://imgsleek.com/img-54ff11613c9e4.html&lt;/a&gt;\n &lt;a href=&quot;\nhttp://imgsleek.com/img-54ff1161442a2.html&quot; rel=&quot;nofollow&quot; target=&quot;_NEW&quot;&gt;\nhttp://imgsleek.com/img-54ff1161442a2.html&lt;/a&gt;\n\nVideo\nID                                       : 1\nFormat                                   : AVC\nFormat/Info                              : Advanced Video Codec\nFormat profile                           : &lt;a class=&quot;__cf_email__&quot; href=&quot;/cdn-cgi/l/email-protection&quot; data-cfemail=&quot;d890b1bfb09894ecf6e8&quot;&gt;[email&amp;#160;protected]&lt;/a&gt;&lt;script cf-hash='f9e31' type=&quot;text/javascript&quot;&gt;\n/* &lt;![CDATA[ */!function(){try{var t=&quot;currentScript&quot;in document?document.currentScript:function(){for(var t=document.getElementsByTagName(&quot;script&quot;),e=t.length;e--;)if(t[e].getAttribute(&quot;cf-hash&quot;))return t[e]}();if(t&amp;&amp;t.previousSibling){var e,r,n,i,c=t.previousSibling,a=c.getAttribute(&quot;data-cfemail&quot;);if(a){for(e=&quot;&quot;,r=parseInt(a.substr(0,2),16),n=2;a.length-n;n+=2)i=parseInt(a.substr(n,2),16)^r,e+=String.fromCharCode(i);e=document.createTextNode(e),c.parentNode.replaceChild(e,c)}}}catch(u){}}();/* ]]&gt; */&lt;/script&gt;\nFormat settings, CABAC                   : Yes\nFormat settings, ReFrames                : 5 frames\nCodec ID                                 : V_MPEG4/ISO/AVC\nDuration                                 : 2h 17mn\nBit rate                                 : 4 319 Kbps\nWidth                                    : 1 916 pixels\nHeight                                   : 794 pixels\nDisplay aspect ratio                     : 2.40:1\nFrame rate mode                          : Constant\nFrame rate                               : 23.976 fps\nColor space                              : YUV\nChroma subsampling                       : 4:2:0\nBit depth                                : 8 bits\nScan type                                : Progressive\nBits/(Pixel*Frame)                       : 0.118\nStream size                              : 4.15 GiB (90%)\nTitle                                    : Unbroken.2014.1080p.WEB-DL.DD5.1.H264-RARBG\nLanguage                                 : English\nDefault                                  : Yes\nForced                                   : No\nColor primaries                          : BT.709\nTransfer characteristics                 : BT.709\nMatrix coefficients                      : BT.709\nColor range                              : Limited\n\nAudio\nID                                       : 2\nFormat                                   : AC-3\nFormat/Info                              : Audio Coding 3\nMode extension                           : CM (complete main)\nFormat settings, Endianness              : Big\nCodec ID                                 : A_AC3\nDuration                                 : 2h 17mn\nBit rate mode                            : Constant\nBit rate                                 : 384 Kbps\nChannel(s)                               : 6 channels\nChannel positions                        : Front: L C R, Side: L R, LFE\nSampling rate                            : 48.0 KHz\nBit depth                                : 16 bits\nCompression mode                         : Lossy\nStream size                              : 377 MiB (8%)\nTitle                                    : Unbroken.2014.1080p.WEB-DL.DD5.1.H264-RARBG\nLanguage                                 : English\nDefault                                  : Yes\nForced                                   : No\n\nText\nID                                       : 3\nFormat                                   : UTF-8\nCodec ID                                 : S_TEXT/UTF8\nCodec ID/Info                            : UTF-8 Plain Text\nLanguage                                 : English\nDefault                                  : Yes\nForced                                   : No\n\nMenu\n00:00:00.000                             : en:1\n00:08:34.000                             : en:2\n00:13:25.000                             : en:3\n00:20:07.000                             : en:4\n00:27:18.000                             : en:5\n00:31:42.000                             : en:6\n00:37:24.000                             : en:7\n00:44:48.000                             : en:8\n00:49:58.000                             : en:9\n00:59:50.000                             : en:10\n01:10:13.000                             : en:11\n01:17:05.000                             : en:12\n01:21:52.000                             : en:13\n01:28:29.000                             : en:14\n01:32:43.000                             : en:15\n01:38:32.000                             : en:16\n01:44:11.000                             : en:17\n01:53:12.000                             : en:18\n02:01:33.000                             : en:19\n02:11:38.000                             : en:20",
  "parsed": {
    "xt": "urn:btih:3cc75a4ec762f51999d5904ce372bb8e2b30d97f",
    "dn": " Unbroken.2014.1080p.WEB-DL.DD5.1.H264-RARBG",
    "tr": [
      "udp://exodus.desync.com:6969",
      "udp://open.demonii.com:1337",
      "udp://tracker.coppersurfer.tk:6969",
      "udp://tracker.openbittorrent.com:80"
    ],
    "infoHash": "3cc75a4ec762f51999d5904ce372bb8e2b30d97f",
    "infoHashBuffer": {
      "type": "Buffer",
      "data": [
        60,
        199,
        90,
        78,
        199,
        98,
        245,
        25,
        153,
        213,
        144,
        76,
        227,
        114,
        187,
        142,
        43,
        48,
        217,
        127
      ]
    },
    "name": " Unbroken.2014.1080p.WEB-DL.DD5.1.H264-RARBG",
    "announce": [
      "udp://exodus.desync.com:6969",
      "udp://open.demonii.com:1337",
      "udp://tracker.coppersurfer.tk:6969",
      "udp://tracker.openbittorrent.com:80"
    ],
    "urlList": []
  },
  "previous": 1,
  "peers": 1,
  "last_updated": "2016-12-26T21:56:20.686Z"
}